<?xml version="1.0" standalone="no"?>
<!DOCTYPE svg PUBLIC "-//W3C//DTD SVG 20010904//EN"
 "http://www.w3.org/TR/2001/REC-SVG-20010904/DTD/svg10.dtd">
<svg version="1.0" xmlns="http://www.w3.org/2000/svg"
 width="640.000000pt" height="1280.000000pt" viewBox="0 0 640.000000 1280.000000"
 preserveAspectRatio="xMidYMid meet">
<metadata>
Created by potrace 1.15, written by Peter Selinger 2001-2017
</metadata>
<g transform="translate(0.000000,1280.000000) scale(0.100000,-0.100000)"
fill="#000000" stroke="none">
<path d="M3015 12742 c-50 -31 -120 -75 -156 -98 l-66 -41 28 -139 c16 -76 28
-148 29 -159 0 -20 -7 -20 -282 -20 l-283 0 1 -366 1 -367 59 -76 59 -76 136
0 c75 0 138 -3 141 -6 3 -3 1 -20 -5 -39 -9 -32 -13 -34 -66 -40 -31 -4 -121
-17 -200 -31 -464 -79 -784 -223 -886 -399 -29 -50 -55 -148 -55 -208 0 -152
85 -409 293 -892 222 -514 285 -663 302 -708 l18 -47 -52 -55 c-129 -136 -121
-268 22 -401 38 -36 57 -59 49 -62 -32 -10 -162 -105 -211 -154 -29 -29 -66
-75 -81 -101 -21 -38 -41 -55 -86 -79 -271 -142 -419 -348 -385 -534 48 -258
380 -484 896 -608 l90 -22 8 -80 c13 -126 1 -893 -17 -1119 -46 -567 -136
-1122 -264 -1630 l-28 -109 -125 -63 c-187 -94 -295 -192 -334 -304 -18 -49
-21 -186 -8 -328 18 -194 -17 -375 -95 -495 -59 -89 -141 -166 -317 -299 -315
-238 -424 -375 -486 -619 -21 -78 -22 -113 -26 -560 l-5 -478 30 -58 c50 -101
99 -166 192 -256 257 -247 674 -423 1250 -526 714 -128 1604 -116 2329 31 730
147 1195 401 1315 717 20 55 21 71 21 512 l0 455 -38 100 c-113 294 -240 464
-547 736 -191 169 -258 247 -319 374 -59 120 -80 202 -91 354 -7 91 -6 127 7
184 13 57 14 79 4 120 -31 136 -185 277 -401 367 -41 18 -80 37 -87 43 -18 19
-127 439 -183 712 -69 334 -115 648 -146 990 -22 239 -23 899 -2 1099 l13 129
123 32 c429 113 717 286 820 494 34 69 37 82 37 160 0 76 -4 94 -32 154 -53
112 -177 228 -344 321 -55 30 -74 48 -108 101 -49 76 -118 139 -222 203 l-76
48 43 32 c23 18 59 58 80 88 33 48 39 65 42 123 5 82 -19 139 -84 207 l-44 44
54 148 c30 81 115 302 189 492 152 387 249 659 297 830 18 63 44 134 57 157
38 65 42 147 11 214 -72 156 -310 288 -680 379 -122 30 -317 64 -429 75 -64 7
-67 8 -73 37 -3 17 -6 34 -6 39 0 5 83 9 185 9 l185 0 0 375 c0 211 -4 375 -9
375 -5 0 -35 32 -66 70 l-57 70 -164 0 c-90 0 -164 3 -164 7 0 4 10 42 21 85
l21 78 -32 33 c-17 17 -46 51 -63 74 -24 31 -72 64 -199 137 -92 53 -171 96
-175 95 -5 0 -49 -26 -98 -57z"/>
</g>
</svg>
